# xmcd CD database file
#
# Track frame offsets:
#	150
#	24921
#	60335
#	91431
#	115263
#	160784
#	195108
#	217483
#	241408
#	280881
#
# Disc length: 3953 seconds
#
# Revision: 0
# Processed by: cddbd v1.5.1PL2 Copyright (c) Steve Scherf et al.
# Submitted via: CDex 1.51
#
DISCID=820f6f0a
DTITLE=Didier LABBE - Alcantara
DYEAR=1998
DGENRE=Jazz
TTITLE0=Toujours plus vers l'Orient
TTITLE1=Felka Miotta
TTITLE2=Alcantara
TTITLE3=Moluam
TTITLE4=Grana od bora
TTITLE5=The happy sheik
TTITLE6=La danse des objets
TTITLE7=Trop de barbarie
TTITLE8=La passionnaria
TTITLE9=Oy tate s'iz gut
EXTD=YEAR: 1998
EXTT0=
EXTT1=
EXTT2=
EXTT3=
EXTT4=
EXTT5=
EXTT6=
EXTT7=
EXTT8=
EXTT9=
PLAYORDER=
